#!OML:ASF X:\für Bonn\!DataBase\2005_08_12_Daniel\c3d\Daniel.ASF
:FULLY-SPECIFIED
:DEGREES
2779
root -3.21531 16.8992 -2.96708 313.059 -81.9108 -324.056
lowerback 20.7131 -2.68617 -2.31917
upperback 1.09518 -4.5417 -2.90514
thorax -10.4814 -2.16859 -0.539649
lowerneck 4.49318 1.86622 -3.49308
upperneck 4.95717 2.23554 0.860991
head 0.727985 1.02116 0.822845
rclavicle 5.10085e-015 1.98785e-015
rhumerus 58.0892 -9.57368 -112.881
rradius 6.9835
rwrist 81.8711
rhand -16.1754 11.4509
rfingers 7.12502
rthumb 10.031 -18.2901
lclavicle 5.10085e-015 1.98785e-015
lhumerus 56.906 4.67592 98.2215
lradius 10.7171
lwrist -68.1581
lhand -14.6296 3.39379
lfingers 7.12502
lthumb 11.522 33.0571
rfemur -0.227912 2.94085 12.2117
rtibia 35.5725
rfoot -33.2937 -4.6258
rtoes -16.5261
lfemur -9.77775 -9.69413 -21.411
ltibia 40.5392
lfoot -28.9464 -2.15949
ltoes -1.09116
2780
root -3.20484 16.8636 -2.97003 312.98 -81.8598 -324.102
lowerback 21.159 -2.69072 -2.35173
upperback 1.13395 -4.5759 -2.90057
thorax -10.6823 -2.17979 -0.485867
lowerneck 4.48132 1.87571 -3.51372
upperneck 4.84664 2.25029 0.851926
head 0.695421 1.03039 0.822595
rclavicle 1.94001e-014 7.15625e-015
rhumerus 58.1414 -9.4586 -112.72
rradius 6.93862
rwrist 81.6163
rhand -16.3081 11.4555
rfingers 7.12502
rthumb 9.90294 -18.2916
lclavicle 1.94001e-014 7.15625e-015
lhumerus 56.9932 4.58656 98.0965
lradius 10.6377
lwrist -68.0655
lhand -14.5905 3.33043
lfingers 7.12502
lthumb 11.5597 32.9916
rfemur -0.784034 1.64291 11.7343
rtibia 36.6067
rfoot -32.7388 -3.76944
rtoes -15.9169
lfemur -10.1162 -9.38865 -21.3635
ltibia 41.1978
lfoot -28.7808 -2.41815
ltoes -0.906907
2781
root -3.19358 16.821 -2.97202 313.049 -81.81 -324.313
lowerback 21.6512 -2.70939 -2.34379
upperback 1.16266 -4.62216 -2.90169
thorax -10.9234 -2.19774 -0.454902
lowerneck 4.49476 1.89161 -3.54011
upperneck 4.73028 2.2717 0.856522
head 0.656589 1.04286 0.827183
rclavicle 1.74092e-015 2.24627e-014
rhumerus 58.1936 -9.35805 -112.563
rradius 6.86881
rwrist 81.3609
rhand -16.452 11.4494
rfingers 7.12502
rthumb 9.76406 -18.3043
lclavicle 1.74092e-015 2.24627e-014
lhumerus 57.0615 4.48831 97.9631
lradius 10.5794
lwrist -67.9915
lhand -14.5907 3.26361
lfingers 7.12502
lthumb 11.5595 32.9248
rfemur -1.38273 0.292599 11.2479
rtibia 37.7678
rfoot -32.227 -2.89727
rtoes -15.2282
lfemur -10.5276 -9.07044 -21.3
ltibia 41.9824
lfoot -28.5621 -2.63286
ltoes -0.565458
2782
root -3.18225 16.7731 -2.97321 312.914 -81.7437 -324.312
lowerback 22.1273 -2.71312 -2.35503
upperback 1.21547 -4.655 -2.92055
thorax -11.128 -2.21015 -0.437638
lowerneck 4.43401 1.88899 -3.56334
upperneck 4.62503 2.2722 0.870629
head 0.633741 1.04536 0.83534
rclavicle -3.52222e-015 -2.00773e-014
rhumerus 58.3027 -9.27034 -112.416
rradius 6.84783
rwrist 81.165
rhand -16.566 11.4502
rfingers 7.12502
rthumb 9.65412 -18.3086
lclavicle -3.52222e-015 -2.00773e-014
lhumerus 57.1818 4.28034 97.7034
lradius 10.5013
lwrist -67.7704
lhand -14.6039 3.21227
lfingers 7.12502
lthumb 11.5468 32.8742
rfemur -2.054 -1.09354 10.7039
rtibia 39.0569
rfoot -31.7461 -2.0611
rtoes -14.5985
lfemur -11.004 -8.76048 -21.2778
ltibia 42.8861
lfoot -28.3261 -2.79322
ltoes -0.0832967
2783
root -3.17031 16.7168 -2.97287 312.841 -81.6841 -324.385
lowerback 22.6232 -2.72553 -2.37127
upperback 1.26732 -4.69726 -2.90717
thorax -11.3404 -2.22511 -0.377706
lowerneck 4.41484 1.90372 -3.62673
upperneck 4.49447 2.29283 0.857723
head 0.595768 1.05725 0.840996
rclavicle -8.89251e-015 -7.15625e-015
rhumerus 58.3673 -9.13277 -112.232
rradius 6.88726
rwrist 80.9685
rhand -16.6563 11.4554
rfingers 7.12502
rthumb 9.56701 -18.3074
lclavicle -8.89251e-015 -7.15625e-015
lhumerus 57.3246 4.15707 97.5337
lradius 10.4315
lwrist -67.6679
lhand -14.5616 3.1707
lfingers 7.12502
lthumb 11.5876 32.8303
rfemur -2.77253 -2.53144 10.1435
rtibia 40.4685
rfoot -31.328 -1.17937
rtoes -14.1597
lfemur -11.546 -8.39893 -21.2338
ltibia 43.9217
lfoot -28.113 -2.91072
ltoes 0.157804
2784
root -3.1582 16.6533 -2.97264 312.87 -81.6216 -324.595
lowerback 23.1594 -2.74253 -2.33932
upperback 1.33169 -4.7391 -2.92341
thorax -11.5667 -2.24338 -0.375974
lowerneck 4.40222 1.90848 -3.66014
upperneck 4.34061 2.301 0.864567
head 0.549918 1.06397 0.847651
rclavicle 1.05045e-014 3.04141e-014
rhumerus 58.4515 -9.05283 -112.079
rradius 6.96343
rwrist 80.7956
rhand -16.7346 11.5176
rfingers 7.12502
rthumb 9.49147 -18.2486
lclavicle 1.05045e-014 3.04141e-014
lhumerus 57.4777 3.93186 97.2508
lradius 10.3553
lwrist -67.4633
lhand -14.4715 3.09319
lfingers 7.12502
lthumb 11.6745 32.7479
rfemur -3.50179 -3.91798 9.60078
rtibia 41.9911
rfoot -30.9998 -0.322242
rtoes -13.8444
lfemur -12.1329 -8.06838 -21.1824
ltibia 45.0794
lfoot -27.942 -2.90714
ltoes 0.0266785
